/* XPM */
static char *bitcoin64[] = {
/* columns rows colors chars-per-pixel */
"64 64 219 2 ",
"   c #030301",
".  c #0C0A04",
"X  c #080703",
"o  c #100E05",
"O  c #141206",
"+  c #191606",
"@  c #1D1907",
"#  c #1D1908",
"$  c #1A1708",
"%  c #221D08",
"&  c #231E07",
"*  c #262109",
"=  c #2A250B",
"-  c #2E280B",
";  c #262107",
":  c #332D0B",
">  c #37300C",
",  c #3C340D",
"<  c #332D12",
"1  c #3B3413",
"2  c #383217",
"3  c #2F2911",
"4  c #40370D",
"5  c #443B0E",
"6  c #483F0F",
"7  c #453C13",
"8  c #483E10",
"9  c #443C19",
"0  c #4B400F",
"q  c #4D4311",
"w  c #49421C",
"e  c #514612",
"r  c #554914",
"t  c #5A4E13",
"y  c #544A1B",
"u  c #594E19",
"i  c #50471B",
"p  c #5E5114",
"a  c #5D521A",
"s  c #635514",
"d  c #665815",
"f  c #6B5D16",
"g  c #63561A",
"h  c #66591A",
"j  c #6B5D1B",
"k  c #6F6017",
"l  c #6F601B",
"z  c #716117",
"x  c #746519",
"c  c #786719",
"v  c #7C6B1A",
"b  c #77681F",
"n  c #4D4523",
"m  c #4F4827",
"M  c #514A25",
"N  c #5A5126",
"B  c #6A5D21",
"V  c #665A20",
"C  c #685F33",
"Z  c #6E6127",
"A  c #7E6E21",
"S  c #73662B",
"D  c #746627",
"F  c #6C6236",
"G  c #776B35",
"H  c #806F1B",
"J  c #84721B",
"K  c #89761C",
"L  c #8D7A1D",
"P  c #917D1E",
"I  c #847322",
"U  c #8C7A24",
"Y  c #897825",
"T  c #917E23",
"R  c #917F28",
"E  c #8B7C31",
"W  c #96811F",
"Q  c #9A841F",
"!  c #958225",
"~  c #9B8621",
"^  c #9E8922",
"/  c #95822A",
"(  c #9A8629",
")  c #9D892A",
"_  c #9A8831",
"`  c #A38C22",
"'  c #A28E2B",
"]  c #A79022",
"[  c #AC9424",
"{  c #A6922D",
"}  c #AC952B",
"|  c #AF982C",
" . c #B39B25",
".. c #B89F26",
"X. c #B49C2B",
"o. c #B89F29",
"O. c #A28F34",
"+. c #A49134",
"@. c #AA9637",
"#. c #B39D34",
"$. c #B39E3A",
"%. c #BBA127",
"&. c #BCA32B",
"*. c #BBA333",
"=. c #BAA439",
"-. c #C1A72C",
";. c #C3A92E",
":. c #C5AB34",
">. c #C8AE33",
",. c #C3AC3B",
"<. c #C8AF38",
"1. c #CBB135",
"2. c #CCB33B",
"3. c #D3B93E",
"4. c #D0B73B",
"5. c #B09E46",
"6. c #AD9B40",
"7. c #BAA643",
"8. c #B5A24C",
"9. c #B8A549",
"0. c #BBA954",
"q. c #C3AD44",
"w. c #C1AC4C",
"e. c #CBB444",
"r. c #CAB44A",
"t. c #D4BB43",
"y. c #D3BB4C",
"u. c #D6BD45",
"i. c #C1AE55",
"p. c #C0AF5F",
"a. c #C5B151",
"s. c #C5B35D",
"d. c #CDBA5B",
"f. c #CBB757",
"g. c #D4BE52",
"h. c #D1BD5D",
"j. c #CBBB66",
"k. c #C8B867",
"l. c #D2BE63",
"z. c #CBBF79",
"x. c #DBC146",
"c. c #DDC44B",
"v. c #DCC454",
"b. c #DBC55B",
"n. c #D9C35A",
"m. c #E3CA53",
"M. c #E6CE5B",
"N. c #EBD35C",
"B. c #E1C84E",
"V. c #DAC662",
"C. c #D4C36D",
"Z. c #DBC767",
"A. c #DDCB73",
"S. c #D6C877",
"D. c #D6CC78",
"F. c #E2CC63",
"G. c #E3CE6A",
"H. c #EBD464",
"J. c #E9D56A",
"K. c #F1DA65",
"L. c #F3DF6C",
"P. c #E7D678",
"I. c #F2DE76",
"U. c #E0CE78",
"Y. c #F4EA7A",
"T. c #F3E576",
"R. c #EFE473",
"E. c #D8CE88",
"W. c #DBD38A",
"Q. c #D9D299",
"!. c #E4D583",
"~. c #EBDC8A",
"^. c #E7DC8A",
"/. c #E3DC93",
"(. c #E7DC98",
"). c #F0DF88",
"_. c #EBE588",
"`. c #F5EC83",
"'. c #F4EE8C",
"]. c #F6E687",
"[. c #F6F08E",
"{. c #ECE394",
"}. c #EBE59C",
"|. c #F2EB9B",
" X c #F4EA96",
".X c #F6F29C",
"XX c #F6F094",
"oX c #DCD7AB",
"OX c #E4DDA7",
"+X c #E3DEB2",
"@X c #E7E2AC",
"#X c #ECE7A8",
"$X c #F3EDAA",
"%X c #F7F2AB",
"&X c #F7F2A5",
"*X c #E9E5B6",
"=X c #F2EDB3",
"-X c #F4EEBA",
";X c #F9F4B4",
":X c #F7F2BA",
">X c #F9F4BD",
",X c #F6F2B3",
"<X c #EEE9C5",
"1X c #ECE8C9",
"2X c #F1EDC4",
"3X c #F2EDCD",
"4X c #F6F2C4",
"5X c #F7F3CD",
"6X c #F9F4CB",
"7X c #F9F5C5",
"8X c #EEEAD1",
"9X c #F2EED4",
"0X c #F6F2D3",
"qX c #F9F4D3",
"wX c #F6F2DB",
"eX c #F9F5DD",
"rX c #FBF8DF",
"tX c #FCF8E5",
"yX c None",
/* pixels */
"yXyXyXyXyXyXyXyXyXyXyXyXyXyXyXyXyXyXyXyXyXyXyXyXyXyXyXyXyXyXyXyXyXyXyXyXyXyXyXyXyXyXyXyXyXyXyXyXyXyXyXyXyXyXyXyXyXyXyXyXyXyXyXyX",
"yXyXyXyXyXyXyXyXyXyXyXyXyXyXyXyXyXyXyXyXyXyXyXyXyXyXyXyXyXyXyXyXyXyXyXyXyXyXyXyXyXyXyXyXyXyXyXyXyXyXyXyXyXyXyXyXyXyXyXyXyXyXyXyX",
"yXyXyXyXyXyXyXyXyXyXyXyXyXyXyXyXyXyXyXyXyXyXyXyXyXyXyXyXyXyXyXyXyXyXyXyXyXyXyXyXyXyXyXyXyXyXyXyXyXyXyXyXyXyXyXyXyXyXyXyXyXyXyXyX",
"yXyXyXyXyXyXyXyXyXyXyXyXyXyXyXyXyXyXyXyXyXyXyXyXyXOX}.(.).~.~.!.!.P.U.U.A.C.j.yXyXyXyXyXyXyXyXyXyXyXyXyXyXyXyXyXyXyXyXyXyXyXyXyX",
"yXyXyXyXyXyXyXyXyXyXyXyXyXyXyXyXyXyXyXyXyXyX$X$X.X{.!.z.k.i.8.8.5.5.5.0.i.s.l.l.h.f.yXyXyXyXyXyXyXyXyXyXyXyXyXyXyXyXyXyXyXyXyXyX",
"yXyXyXyXyXyXyXyXyXyXyXyXyXyXyXyXyXyXyX2X:X;X#XW.k.w.$.#.X.X. .[ | [ ] ` ' ( O.@.8.a.f.r.8.yXyXyXyXyXyXyXyXyXyXyXyXyXyXyXyXyXyXyX",
"yXyXyXyXyXyXyXyXyXyXyXyXyXyXyXyXyX0X6X7X#XD.f.e.2.e.q.q.5.$.<.<.<.:.,.@.@.} ] ` ! / O.7.r.q.+.yXyXyXyXyXyXyXyXyXyXyXyXyXyXyXyXyX",
"yXyXyXyXyXyXyXyXyXyXyXyXyXyXyXyXqXqX*XW.V.m.m.c.m.s.d.i.h.f.n.n.g.d.5.7.,.#.| o. .] ~ T / $.,.#.yXyXyXyXyXyXyXyXyXyXyXyXyXyXyXyX",
"yXyXyXyXyXyXyXyXyXyXyXyXyXyXwXrX0XoXP.J.R.A.A.R.).I.).C.A.G.G.F.V.s.9.g.y.r.,.2.7.@.' ` Q U ) #.*.! yXyXyXyXyXyXyXyXyXyXyXyXyXyX",
"yXyXyXyXyXyXyXyXyXyXyXyXyXeXrX<XW.R.Y.Y._._.|.W. X[.].A.C.J.G.Z.V.i.w.g.y.e.e.a.+.*.&.[ ` ` P U { #.( yXyXyXyXyXyXyXyXyXyXyXyXyX",
"yXyXyXyXyXyXyXyXyXyXyXyXtXtX*X/.`.'.|.$X=X#X=X}. X[.].U.C.J.F.b.n.i.q.y.y.e.e.@.#.>.;.*.` | ] T J ( | ( yXyXyXyXyXyXyXyXyXyXyXyX",
"yXyXyXyXyXyXyXyXyXyXyXeXwX@X_. X#X*X2X6X5X-X@X}.{. X].!.j.Z.F.b.g.y.7.7.9.5.,.@.-.;.;.#.` ..| ` Q J U { / yXyXyXyXyXyXyXyXyXyXyX",
"yXyXyXyXyXyXyXyXyXyXtXwX@X_.|.@X<X3X3X3X6X4X$X$X{.!._.P.G.F.M.n.g.u.e.<.,.,.<.| o.;.:.O.` o.+.P ^ Q K Y ' Y yXyXyXyXyXyXyXyXyXyX",
"yXyXyXyXyXyXyXyXyXeXwX+X{.}.=X1XwXtXtX3X2X4X@X#X.X[.].].).~.~.A.A.G.V.y.e.:.;.&.[ @.O.` o.@.T [ ] ) P J Y ( v yXyXyXyXyXyXyXyXyX",
"yXyXyXyXyXyXyXyXeXrX@X{.|.=X0X9XtXwXtX3X<X4X=X%X&X,X>X$XS.}.&Xk.l.).j.8.Z.n.e.;.%... .o.#.R ` [ +./ K P H Y ! h yXyXyXyXyXyXyXyX",
"yXyXyXyXyXyXyXwXrX*X_.|.*X3XtX9XwXwXwX1X3X4X>X6X<X/.7X$XS.E.C.0.k.p.5.i.h.f.O.e.<.o. .[ R Q [ +./ U L Q L v Y Y 7 yXyXyXyXyXyXyX",
"yXyXyXyXyXyXyXeX3X/.'.#X1XwXeXwX8X8X8X3X5X3XqXtX4X/.Q.C.0.a.7.q.=.#.X.{ +.+.@.e.,.X. . .` ` _ R ( R L ( K J c Y x yXyXyXyXyXyXyX",
"yXyXyXyXyXyX3XqXQ.Y.}.*XwXwX8XwXeX9X9XqXtX1X@X8XQ.D.G.H.N.v.x.t.4.1.:.;.%.[ ' ` { U o.[ ] ` P Q ' I / E v J v v I i yXyXyXyXyXyX",
"yXyXyXyXyXyX6X@XP.Y.$X2X8X8XwXeXwXqXqXwXtXeX+XW._.Y.R.H.b.c.x.2.1.;.-.%.%.%. .] ! ` o.[ ^ ` Q Q ( I E J L K H z I x yXyXyXyXyXyX",
"yXyXyXyXyX<X4XU.R.'.:XqX0X3X8X8X0X0XeX+X8XoX/.'.Y.R.K.N.v.x.4.2.>.;.-.%... .|  .] ~ ! K J W Q Q / A J L K K J c x A w yXyXyXyXyX",
"yXyXyXyXyX:X(.Z.T.XX>X6XqX0X<X<X5XtXtX5XoX{.XX'.Y.K.N.B.c.3.4.1.;.-.%.%...X.| ' ` ] ~ J ' Q L P U J L K K J H v f A h yXyXyXyXyX",
"yXyXyXyXyX$XC.N.T.&X>X7X7X4X2X4X5X8XeXoX}.XX'.Y.R.K.N.c.x.4.>.>.;.&.&.X.' ! L J K ` ` W L K z J P L K J J H v v f l x > yXyXyXyX",
"yXyXyXyX#X/.n.N.].&X;X;X:X:X:X:X9X@XoX/.[.`.Y.R.K.N.B.x.4.1.*.*.#.{ ! U K J H v H Q ~ Q P x H v J K J J H v v c x d x i yXyXyXyX",
"yXyXyXyX|.C.t.N.`.&X&X%X%X%X%X6XtX1XW.'.'.Y.R.K.N.B.c.3.1.1.$./ T L J J H v J L W Q Q W W J J v x J J H v v c x z d f a yXyXyXyX",
"yXyXyXyX(.a.t.H.`.XX.X.X.X.X&X<X<XQ._.Y.Y.R.K.N.B.x.3.3.>.*.' W K J J L Q ~ ` Q Q Q W P P K v f p v H v v c x z f d d h - yXyXyX",
"yXyXyX/.!.7.t.H.].[.[.[.[.[.%X(.W.D.Y.Y.L.K.N.B.x.3.4.1.*.*.W W K ` ] ` ` ` ` Q Q W P P L K H p f f v v x z z z f d s d 1 yXyXyX",
"yXyXyX~.l.=.u.H.I.Y.Y.`.].`.;X>XE.J.L.K.N.m.B.x.3.4.>.;.&.| W W L ] ] ` ` Q Q Q W P L L K J H z f t c x x z f f d s s h q yXyXyX",
"yXyXyX!.i.*.t.F.I.I.I.I.I.I.$X}.C.K.N.m.m.x.x.3.1.1.;.%.o.[ W A K ` ` ^ Q Q Q P P L L K K J H c t e z z z f f d d s t s q yXyXyX",
"yXyXyXP.8.&.r.V.J.J.H.H.H.).z.j.n.c.m.B.x.3.4.1.>.;.&.o.X.} K v J ` Q Q Q ~ ! / K K K J H H v x q i d z f f d Z d p t s i O yXyX",
"yXyXyXU.6.&.r.i.F.G.F.F.M.I.].z.0.x.x.3.4.4.1.>.&.%.o.X.[ [ W v J ^ ` ) ! U v x k J J H H v v v d u t f d d s D j t r s e + yXyX",
"yXyXyXA.@.o.r.0.b.b.b.v.g.P.).s.2.x.3.1.1.1.>.&.&.%. .[ [ ' A v J ( U I v f d f z J H H v c c x d 6 e d d d d S g r r p q # yXyX",
"yXyXyXC.O.o.e.0.j.a.c.y.u.G.0.5.*.3.1.>.&.&.%.%.%. .[ [ [ ' v v v c x f f x v K J H H v c x z z p > 0 d s Z D S t r e p q # yXyX",
"yXyXyXZ.O. .e.9.9.9.e.y.e.n.d.9.&.>.;.;.&.&.o. . .| } ' ! K v c x x v J L U Y A z v v c x z z z s i 0 d p S V j e e 0 p 0 # yXyX",
"yXyXyXl.' | :.q.r.0.a.<.2.n.G.9.&.-.&.&.o. . .X.{ ( U H x c c x x U R R I x d p s v x x z z f z s > 6 s Z S t i e e 0 p 6 $ yXyX",
"yXyXyXh.O.| ;.e.y.8.5.,.>.y.s.+.| &..... .| | Q H v x v J P c z v I x f s p s f x x x z k f d z q - 0 s Z h r r e 0 0 t 4 O yXyX",
"yXyXyXd.+.] ;.2.<.,.=.*.:.>.@.@.` .. . . .[ ] ! H K ~ ~ ^ T c k f d d d z x v v x x z f f d d x 7 9 q a a e e 0 0 0 6 t 4 o yXyX",
"yXyXyXf.@.` %.>.<.>.=.&.-.-.2.e.^ .. .[ ] ] ] ` ` ) ( Y v z k f d x v v v v v x z z f f d d s D , > e p r q 0 0 6 6 6 t > X yXyX",
"yXyXyXa.5.Q  .;.:.:.;.&.%.%.>.*.! ] [ ] ] ` ` ^ U I x f f c k d f J H v v c x z k f f d d s h V ; : r r e 0 0 6 6 4 q e - yXyXyX",
"yXyXyX9.q.! [ -.;.-.-...%.....P ! Q [ ] ` ` Q K z z x H J K k d f H v v c x z f f f d s p p D 1 < 4 r e 0 0 6 6 4 4 i 6 * yXyXyX",
"yXyXyXyXq.! ` ..-.-.%... . . . .*.Q ` ` ` ` Q P J L P L K K f s d v v c z z k f d d s s p d Z : 1 q 0 0 0 0 6 4 4 4 u , $ yXyXyX",
"yXyXyXyXq.O.!  .%.%.%... .[ [ [  .Q P ^ Q Q Q P P P L K J J d s d c c z z z f d d s s p t D 1 # > e 0 6 6 6 5 4 , 6 r : . yXyXyX",
"yXyXyXyX#.#.P ]  ... . . .[ [ ` Q v P ! Q Q P P L K K J J H d p s x z k f d d s d p t t Z N 3 - 6 0 6 6 5 4 4 , > q 9 = yXyXyXyX",
"yXyXyXyXR =./ Q [  . . .[ [ ] ` W ! ` P P P P P K K J J H v s t s z k f f d s s p t t j F * < 4 0 6 6 5 4 , , , , y > $ yXyXyXyX",
"yXyXyXyXyXX.{ L ] [ [ [ ] ] ` ` ~ L L x H L L K K J H H v c s s f k f f d s s p p t B F = + : 6 6 5 5 4 4 , , > 9 q = X yXyXyXyX",
"yXyXyXyXyXR X.U W ` [ [ ] ` ` ^ ~ P v x U J K J J H H v v x x x f f d d d p p t t S F 3 2 - 6 6 5 4 4 4 , , > > y : % yXyXyXyXyX",
"yXyXyXyXyXyX{ ' L ~ ` ` ` ` Q Q Q W K c v x f v H H c c x z z f f d d s p p t h G m % + : 6 6 6 5 4 , , > > : w w * . yXyXyXyXyX",
"yXyXyXyXyXyXI { T L Q ` Q Q ~ W P P L K k t h x x v v x z z f d d d s p s j G C 2 = 3 - 7 6 4 4 , , , , > : > M - $ yXyXyXyXyXyX",
"yXyXyXyXyXyXyX/ ' K P Q Q Q W P P L K K J z g s r e f x v c x x z x D D S N < * $ 3 1 6 6 4 4 4 , , , > : : i 1 * X yXyXyXyXyXyX",
"yXyXyXyXyXyXyXyX( ! J L W W P L L K K J H H x s 6 p r 0 4 t t y u u 9 < - @ < : > 5 6 5 6 4 4 , , , : : - 9 9 * O yXyXyXyXyXyXyX",
"yXyXyXyXyXyXyXyXj ) U J L P L L K J J H v v c c f p 0 , 7 q : - 9 ; & 9 - - , 6 6 6 5 5 4 , , , > : : - 9 n = $   yXyXyXyXyXyXyX",
"yXyXyXyXyXyXyXyXyXD ! I H J L K J J H v v c x z z f d s r 0 5 5 7 , 4 6 0 0 0 6 6 4 5 4 , , > > : : - 4 n * # X yXyXyXyXyXyXyXyX",
"yXyXyXyXyXyXyXyXyXyXv / J v H J J H v v c x z z f x f d s s s t r t r e u r 6 6 5 4 4 , , > : : : : 1 i 3 % X yXyXyXyXyXyXyXyXyX",
"yXyXyXyXyXyXyXyXyXyXyXx Y I x v v v v c x z f f f j s t g h t t s r q t i 5 5 5 4 4 , , > : : : - 1 M = % . yXyXyXyXyXyXyXyXyXyX",
"yXyXyXyXyXyXyXyXyXyXyXyXj I v x x x x z z z f d s s h t a e e e r 6 0 y 6 0 5 4 4 , , > : : : : n n * $ o yXyXyXyXyXyXyXyXyXyXyX",
"yXyXyXyXyXyXyXyXyXyXyXyXyXa A A x f z z f f d d s h j r r e t 6 e 6 e 6 0 5 , , , > , > : : 1 M 2 % + X yXyXyXyXyXyXyXyXyXyXyXyX",
"yXyXyXyXyXyXyXyXyXyXyXyXyXyX9 x v x f d d d s s d B u t e e r 5 e 4 6 4 , 4 > , , > > - : n m 3 % $ X yXyXyXyXyXyXyXyXyXyXyXyXyX",
"yXyXyXyXyXyXyXyXyXyXyXyXyXyXyX= t x x j h s p s p e t r 0 e i 5 e 5 5 , , q > > : : , w M 2 % $ O   yXyXyXyXyXyXyXyXyXyXyXyXyXyX",
"yXyXyXyXyXyXyXyXyXyXyXyXyXyXyXyXyX1 u h f d d s r r q 0 0 0 6 6 q , 4 , > > > 1 9 M M 1 * # + X yXyXyXyXyXyXyXyXyXyXyXyXyXyXyXyX",
"yXyXyXyXyXyXyXyXyXyXyXyXyXyXyXyXyXyXO > y p g s s s p t e 0 q 7 6 7 4 7 q i u M 9 : * % # .   yXyXyXyXyXyXyXyXyXyXyXyXyXyXyXyXyX",
"yXyXyXyXyXyXyXyXyXyXyXyXyXyXyXyXyXyXyXyXyX= 1 q e r t t t p p u u u u i w 1 : - * % + X   yXyXyXyXyXyXyXyXyXyXyXyXyXyXyXyXyXyXyX",
"yXyXyXyXyXyXyXyXyXyXyXyXyXyXyXyXyXyXyXyXyXyXyXO & : > 1 4 , , , > : : : = & % O . X yXyXyXyXyXyXyXyXyXyXyXyXyXyXyXyXyXyXyXyXyXyX",
"yXyXyXyXyXyXyXyXyXyXyXyXyXyXyXyXyXyXyXyXyXyXyXyXyXyXyXX o O + + + O o . X X yXyXyXyXyXyXyXyXyXyXyXyXyXyXyXyXyXyXyXyXyXyXyXyXyXyX",
"yXyXyXyXyXyXyXyXyXyXyXyXyXyXyXyXyXyXyXyXyXyXyXyXyXyXyXyXyXyXyXyXyXyXyXyXyXyXyXyXyXyXyXyXyXyXyXyXyXyXyXyXyXyXyXyXyXyXyXyXyXyXyXyX",
"yXyXyXyXyXyXyXyXyXyXyXyXyXyXyXyXyXyXyXyXyXyXyXyXyXyXyXyXyXyXyXyXyXyXyXyXyXyXyXyXyXyXyXyXyXyXyXyXyXyXyXyXyXyXyXyXyXyXyXyXyXyXyXyX"
};
