/* XPM */
static char *bitcoin16[] = {
/* columns rows colors chars-per-pixel */
"16 16 167 2 ",
"   c #1C1808",
".  c #211D0C",
"X  c #27220A",
"o  c #27220C",
"O  c #2C260A",
"+  c #2B260F",
"@  c #2D280F",
"#  c #302A0B",
"$  c #332D0F",
"%  c #37300C",
"&  c #38310F",
"*  c #3A320F",
"=  c #3B330F",
"-  c #3C340C",
";  c #3C340D",
":  c #3E350D",
">  c #3F360E",
",  c #373010",
"<  c #3D3510",
"1  c #40370D",
"2  c #41380E",
"3  c #443B0E",
"4  c #443B0F",
"5  c #453B0F",
"6  c #433A11",
"7  c #443B10",
"8  c #463E15",
"9  c #443C16",
"0  c #493F11",
"q  c #4B4110",
"w  c #4B4113",
"e  c #4C4211",
"r  c #4F4411",
"t  c #4E4413",
"y  c #544913",
"u  c #554A13",
"i  c #574B13",
"p  c #544914",
"a  c #5B4F15",
"s  c #584D19",
"d  c #5F5214",
"f  c #5C5017",
"g  c #5D5119",
"h  c #5F5318",
"j  c #615415",
"k  c #625515",
"l  c #625516",
"z  c #645717",
"x  c #665917",
"c  c #685A15",
"v  c #6A5B16",
"b  c #6B5C16",
"n  c #6C5D16",
"m  c #6C5E16",
"M  c #6D5E17",
"N  c #645719",
"B  c #695B1A",
"V  c #6E5F1A",
"C  c #6F6018",
"Z  c #716217",
"A  c #736318",
"S  c #736319",
"D  c #736418",
"F  c #746418",
"G  c #766619",
"H  c #776619",
"J  c #776719",
"K  c #74651A",
"L  c #78681B",
"P  c #7D6C1A",
"I  c #7E6D1A",
"U  c #816F1B",
"Y  c #806F1C",
"T  c #84711B",
"R  c #82701D",
"E  c #85731C",
"W  c #84721E",
"Q  c #87751E",
"!  c #88751C",
"~  c #89761D",
"^  c #8A771D",
"/  c #8B781D",
"(  c #8B781F",
")  c #907C1E",
"_  c #917E1E",
"`  c #827120",
"'  c #837120",
"]  c #8E7C24",
"[  c #97821F",
"{  c #98831F",
"}  c #968120",
"|  c #968121",
" . c #968220",
".. c #978320",
"X. c #968223",
"o. c #948124",
"O. c #978325",
"+. c #9B8623",
"@. c #9C8720",
"#. c #9C8622",
"$. c #9E8821",
"%. c #A48F28",
"&. c #A48F29",
"*. c #A79126",
"=. c #A99222",
"-. c #A89125",
";. c #A99227",
":. c #AF9826",
">. c #A79128",
",. c #B09824",
"<. c #B69E2B",
"1. c #B79F2B",
"2. c #B29B2D",
"3. c #B39C2E",
"4. c #B29C2F",
"5. c #B49D2C",
"6. c #AF9B3A",
"7. c #BAA22E",
"8. c #BFA52C",
"9. c #B6A13D",
"0. c #BBA43A",
"q. c #C1A935",
"w. c #C9AF35",
"e. c #C7AE38",
"r. c #C1AA3E",
"t. c #D0B63B",
"y. c #BEA945",
"u. c #C4AE43",
"i. c #C5AE43",
"p. c #C5AF4A",
"a. c #C6B24F",
"s. c #D2BB47",
"d. c #D5BE4F",
"f. c #CCB750",
"g. c #CCB856",
"h. c #D2BF61",
"j. c #D8C45E",
"k. c #DCC65D",
"l. c #E6D057",
"z. c #E6D059",
"x. c #DDC865",
"c. c #DCC967",
"v. c #DECD74",
"b. c #E8DB7D",
"n. c #E8D97E",
"m. c #E4D682",
"M. c #E5D880",
"N. c #E8DB81",
"B. c #F3E480",
"V. c #F0E687",
"C. c #ECE294",
"Z. c #EDE59A",
"A. c #F0E797",
"S. c #F4ED9E",
"D. c #EEE8A3",
"F. c #EFE9A7",
"G. c #EFEABB",
"H. c #F0EAB8",
"J. c #F0EBBA",
"K. c #F1EBBA",
"L. c #F3EFBE",
"P. c #F1EDC1",
"I. c #F6F1C2",
"U. c #F3EFD1",
"Y. c #F4EFD1",
"T. c #F4F0D6",
"R. c None",
/* pixels */
"R.R.R.R.R.R.R.R.R.R.R.R.R.R.R.R.",
"R.R.R.R.K.m.h.a.y.9.6.R.R.R.R.R.",
"R.R.R.P.D.C.n.x.f.r.3.%.O.R.R.R.",
"R.R.P.J.Y.L.Z.v.g.r.5.%.o.` R.R.",
"R.H.F.U.T.G.N.d.q.2.*.+.] R N R.",
"R.M.S.I.G.V.z.e.;...[ ~ E P x R.",
"R.j.B.A.b.l.t.>. .{ _ I C Z k R.",
"R.p.k.c.s.w.1.| ( W U H d B a % ",
"R.0.i.u.7.:.X.Y L K F b p g r # ",
"R.4.8.<.-.$.Q G F D v f 0 q 5 R.",
"R.&.,.=.} ) ! A m c h 8 3 2 * R.",
"R.R.#.@./ J D M z s 9 > : = o R.",
"R.R.' ^ T F j y w 6 1 - & @ R.R.",
"R.R.R.V S n l u e 4 ; , + R.R.R.",
"R.R.R.R.t i y e 7 < $ . R.R.R.R.",
"R.R.R.R.R.R.R.O X   R.R.R.R.R.R."
};
