/* XPM */
static char *bitcoin32[] = {
/* columns rows colors chars-per-pixel */
"32 32 173 2 ",
"   c #0C0A03",
".  c #110F04",
"X  c #131005",
"o  c #1E1A09",
"O  c #1A1606",
"+  c #221E09",
"@  c #2A250B",
"#  c #2E280F",
"$  c #27220A",
"%  c #342D0C",
"&  c #3C340D",
"*  c #322D12",
"=  c #3D3613",
"-  c #3C3518",
";  c #40370D",
":  c #443B0E",
">  c #483F0F",
",  c #443B13",
"<  c #4B400F",
"1  c #4D4212",
"2  c #4C441E",
"3  c #514612",
"4  c #554913",
"5  c #5A4E14",
"6  c #51471A",
"7  c #5D5116",
"8  c #5F541F",
"9  c #635515",
"0  c #675916",
"q  c #6B5D16",
"w  c #62551A",
"e  c #67591A",
"r  c #6B5D1A",
"t  c #6F6017",
"y  c #716117",
"u  c #746419",
"i  c #786719",
"p  c #7C6B1A",
"a  c #5E5424",
"s  c #615621",
"d  c #6B5E21",
"f  c #6E6023",
"g  c #806F1B",
"h  c #84721C",
"j  c #89761D",
"k  c #8D7A1E",
"l  c #927E1E",
"z  c #847322",
"x  c #8E7B22",
"c  c #917E24",
"v  c #96811F",
"b  c #99841F",
"n  c #958123",
"m  c #9A8521",
"M  c #9E8923",
"N  c #99862A",
"B  c #9F8A29",
"V  c #A28C23",
"C  c #A38E29",
"Z  c #A79025",
"A  c #AC9525",
"S  c #A6912B",
"D  c #AD962B",
"F  c #AF992F",
"G  c #B39A25",
"H  c #B99F26",
"J  c #B49C2A",
"K  c #B89F2A",
"L  c #AB9634",
"P  c #AE9833",
"I  c #A69232",
"U  c #B39D33",
"Y  c #B19D3C",
"T  c #BDA42D",
"R  c #BCA327",
"E  c #B7A137",
"W  c #BDA532",
"Q  c #B6A13D",
"!  c #BAA43B",
"~  c #C0A62B",
"^  c #C1A82F",
"/  c #C5AC32",
"(  c #C2AB3C",
")  c #C8AF3A",
"_  c #CBB136",
"`  c #CDB43A",
"'  c #D0B73E",
"]  c #D4BA3E",
"[  c #B5A142",
"{  c #BAA540",
"}  c #BEAA4D",
"|  c #B9A649",
" . c #BEAC55",
".. c #C3AD43",
"X. c #C3AE4A",
"o. c #CAB346",
"O. c #C6B14E",
"+. c #CEB74B",
"@. c #CFB94E",
"#. c #D4BC47",
"$. c #C2AF55",
"%. c #CCB752",
"&. c #CDB95C",
"*. c #C4B257",
"=. c #D0BB59",
"-. c #D0BA51",
";. c #CDBB64",
":. c #DAC146",
">. c #DDC34A",
",. c #D6C053",
"<. c #DCC453",
"1. c #D9C45C",
"2. c #DEC85F",
"3. c #D6C15A",
"4. c #E5CC55",
"5. c #E0CB5B",
"6. c #EAD25A",
"7. c #DAC76A",
"8. c #D4C372",
"9. c #D8C777",
"0. c #DACB77",
"q. c #DFD077",
"w. c #E2CD66",
"e. c #E1CE6E",
"r. c #E7D064",
"t. c #EDD762",
"y. c #EAD66F",
"u. c #E2D374",
"i. c #E5D47A",
"p. c #E8DB7E",
"a. c #F2DF79",
"s. c #F2E16D",
"d. c #EDE37C",
"f. c #F2E47B",
"g. c #F3E471",
"h. c #DCCC80",
"j. c #DED184",
"k. c #E9DB81",
"l. c #E1D58A",
"z. c #E7DE96",
"x. c #E2DB9B",
"c. c #EEE384",
"v. c #F2E482",
"b. c #F4ED86",
"n. c #F5EB89",
"m. c #E6E19A",
"M. c #EBE69B",
"N. c #F3EB93",
"B. c #F7F196",
"V. c #E3DCA0",
"C. c #ECE6A2",
"Z. c #EEE7AC",
"A. c #EEE8A8",
"S. c #F1ECAE",
"D. c #F8F3AF",
"F. c #ECE6B0",
"G. c #EEE9B1",
"H. c #F2EDB5",
"J. c #F4EFBC",
"K. c #F6F1B2",
"L. c #F8F3BF",
"P. c #F6F2BD",
"I. c #EFEBC7",
"U. c #EDE9C9",
"Y. c #F3EFC5",
"T. c #F2EECC",
"R. c #F7F3C6",
"E. c #F3EED4",
"W. c #F5F1D3",
"Q. c #F8F3D7",
"!. c #F6F1DC",
"~. c #F9F7E7",
"^. c None",
/* pixels */
"^.^.^.^.^.^.^.^.^.^.^.^.^.^.^.^.^.^.^.^.^.^.^.^.^.^.^.^.^.^.^.^.",
"^.^.^.^.^.^.^.^.^.^.^.^.^.^.l.h.9.8.^.^.^.^.^.^.^.^.^.^.^.^.^.^.",
"^.^.^.^.^.^.^.^.^.^.H.m.0.&.} { Q Y [ | } } ^.^.^.^.^.^.^.^.^.^.",
"^.^.^.^.^.^.^.^.W.Z.i.1.@.O.X.o.o.Q U D S I Y L ^.^.^.^.^.^.^.^.",
"^.^.^.^.^.^.^.W.C.d.p.k.v.i.7.w.&.O.o...E A M B S ^.^.^.^.^.^.^.",
"^.^.^.^.^.~.T.C.M.K.H.C.N.k.7.5.-...X.! W T A V n N ^.^.^.^.^.^.",
"^.^.^.^.^.T.C.Z.E.W.Y.A.N.c.i.e.1.%.) ^ J D D V M x x ^.^.^.^.^.",
"^.^.^.^.T.C.H.Q.!.E.Y.P.H.Z.j.8.;.$.%.{ T D C C N k z z ^.^.^.^.",
"^.^.^.W.M.C.E.!.E.E.W.I.x.q.3.o.( W J P D A V m c c h h r ^.^.^.",
"^.^.^.C.c.P.W.E.Q.W.U.m.f.t.<.] ^ T K A V V m b c z j p u ^.^.^.",
"^.^.F.i.n.R.R.Y.W.U.M.b.s.4.#._ ~ K Z m m n k j x j h p u 4 ^.^.",
"^.^.l.5.N.D.K.L.U.m.b.g.6.:._ E M x j h v b j p p h p i r w ^.^.",
"^.^.7.<.n.B.B.S.x.d.s.6.:.` W n k b b b b l k i t i i y r w ^.^.",
"^.^.O.<.a.f.v.M.u.t.4.:.` ^ J x m V V b l k h i w y t q 9 9 & ^.",
"^.8.{ %.w.r.y.0.,.>.] _ ^ R A h v M c h h h g u 5 9 0 r w 5 & ^.",
"^.;.E X.=.<.2.;.` _ / T R A V h h p i i p g i u 4 5 r f 7 5 & ^.",
"^.*.P ..} o.@.O.T ~ K G S n h i p z p u u i y t 3 4 d w 3 4 & ^.",
"^. .P / ..! ` Q J H A V j j k i u u r r u y q q , 4 w 3 1 1 % ^.",
"^.^.L R / T ~ W Z A Z V c h i q y p p i y 0 0 w & 4 3 < > 1 $ ^.",
"^.^.L G ~ R H A C V V v p h h q u i u t q 9 9 6 & 3 < : : , O ^.",
"^.^.L C H H A A b b b l l j g 9 q u q 0 9 9 s * : > : & : = ^.^.",
"^.^.C M A A A V b j k l h h p 9 q q 9 9 7 w - & > : ; & , $ ^.^.",
"^.^.^.B m Z V b v g i p g p i y q 9 9 w a - % : : & & = = . ^.^.",
"^.^.^.x m b b v l j y r 0 y y q q e 8 2 * % : : & & % , + ^.^.^.",
"^.^.^.^.x x x l k h p y 7 3 1 1 > - % & : : : & & % - #   ^.^.^.",
"^.^.^.^.^.z h h h p i y q 9 5 3 1 > 1 : : ; & % % = * . ^.^.^.^.",
"^.^.^.^.^.^.p p i u y q 0 9 5 4 4 3 1 : & & % * = * X ^.^.^.^.^.",
"^.^.^.^.^.^.^.d u y 0 9 9 9 3 3 < , : & & % = - $   ^.^.^.^.^.^.",
"^.^.^.^.^.^.^.^.3 e 0 w 5 4 1 1 : & , & = , * o   ^.^.^.^.^.^.^.",
"^.^.^.^.^.^.^.^.^.^., 3 4 4 3 1 1 1 , - % o   ^.^.^.^.^.^.^.^.^.",
"^.^.^.^.^.^.^.^.^.^.^.^.+ @ % % @ $ + X ^.^.^.^.^.^.^.^.^.^.^.^.",
"^.^.^.^.^.^.^.^.^.^.^.^.^.^.^.^.^.^.^.^.^.^.^.^.^.^.^.^.^.^.^.^."
};
